<svg width="62" height="18" viewBox="0 0 62 18" fill="none" xmlns="http://www.w3.org/2000/svg">
<path d="M9.65338 15.584C9.84538 15.584 10.0134 15.656 10.1574 15.8C10.3014 15.928 10.3734 16.088 10.3734 16.28C10.3734 16.488 10.3014 16.664 10.1574 16.808C10.0134 16.936 9.84538 17 9.65338 17H1.08538C0.877375 17 0.701375 16.928 0.557375 16.784C0.429375 16.64 0.365375 16.472 0.365375 16.28V0.92C0.365375 0.727999 0.437375 0.559999 0.581375 0.415999C0.725375 0.271999 0.909375 0.199999 1.13338 0.199999C1.32538 0.199999 1.49338 0.271999 1.63737 0.415999C1.79738 0.559999 1.87738 0.727999 1.87738 0.92V15.992L1.42138 15.584H9.65338ZM14.1708 16.28C14.1708 16.472 14.0988 16.64 13.9548 16.784C13.8108 16.928 13.6428 17 13.4508 17C13.2428 17 13.0668 16.928 12.9228 16.784C12.7948 16.64 12.7308 16.472 12.7308 16.28V5.24C12.7308 5.048 12.7948 4.88 12.9228 4.736C13.0668 4.592 13.2428 4.52 13.4508 4.52C13.6588 4.52 13.8268 4.592 13.9548 4.736C14.0988 4.88 14.1708 5.048 14.1708 5.24V16.28ZM13.4508 2.912C13.1148 2.912 12.8588 2.84 12.6828 2.696C12.5228 2.536 12.4428 2.312 12.4428 2.024V1.784C12.4428 1.496 12.5308 1.28 12.7068 1.136C12.8988 0.976 13.1548 0.896 13.4748 0.896C13.7788 0.896 14.0108 0.976 14.1708 1.136C14.3468 1.28 14.4348 1.496 14.4348 1.784V2.024C14.4348 2.312 14.3468 2.536 14.1708 2.696C14.0108 2.84 13.7708 2.912 13.4508 2.912ZM23.4316 4.64C24.4236 4.64 25.2716 4.904 25.9756 5.432C26.6796 5.944 27.1596 6.712 27.4156 7.736L27.0796 7.832L27.2236 7.4C27.4316 6.92 27.7756 6.472 28.2556 6.056C28.7516 5.624 29.3116 5.28 29.9356 5.024C30.5596 4.768 31.1916 4.64 31.8316 4.64C32.8396 4.64 33.6476 4.856 34.2556 5.288C34.8796 5.72 35.3276 6.304 35.5996 7.04C35.8876 7.76 36.0316 8.576 36.0316 9.488V16.28C36.0316 16.472 35.9596 16.64 35.8156 16.784C35.6876 16.928 35.5196 17 35.3116 17C35.1036 17 34.9276 16.928 34.7836 16.784C34.6556 16.64 34.5916 16.472 34.5916 16.28V9.56C34.5916 8.904 34.4876 8.304 34.2796 7.76C34.0716 7.216 33.7436 6.784 33.2956 6.464C32.8476 6.144 32.2476 5.984 31.4956 5.984C30.8396 5.984 30.2076 6.144 29.5996 6.464C29.0076 6.784 28.5196 7.216 28.1356 7.76C27.7676 8.304 27.5836 8.904 27.5836 9.56V16.28C27.5836 16.472 27.5116 16.64 27.3676 16.784C27.2396 16.928 27.0716 17 26.8636 17C26.6556 17 26.4796 16.928 26.3356 16.784C26.2076 16.64 26.1436 16.472 26.1436 16.28V9.488C26.1436 8.832 26.0476 8.24 25.8556 7.712C25.6636 7.184 25.3516 6.768 24.9196 6.464C24.4876 6.144 23.9036 5.984 23.1676 5.984C22.5116 5.984 21.8876 6.144 21.2956 6.464C20.7196 6.768 20.2476 7.184 19.8796 7.712C19.5276 8.24 19.3516 8.832 19.3516 9.488V16.28C19.3516 16.472 19.2796 16.64 19.1356 16.784C18.9916 16.928 18.8236 17 18.6316 17C18.4076 17 18.2316 16.928 18.1036 16.784C17.9756 16.64 17.9116 16.472 17.9116 16.28V5.528C17.9116 5.336 17.9756 5.168 18.1036 5.024C18.2476 4.88 18.4236 4.808 18.6316 4.808C18.8396 4.808 19.0076 4.88 19.1356 5.024C19.2796 5.168 19.3516 5.336 19.3516 5.528V7.76L18.7036 8.648C18.7516 8.168 18.9036 7.688 19.1596 7.208C19.4316 6.728 19.7836 6.296 20.2156 5.912C20.6476 5.528 21.1356 5.224 21.6796 5C22.2396 4.76 22.8236 4.64 23.4316 4.64ZM41.1943 16.28C41.1943 16.472 41.1223 16.64 40.9783 16.784C40.8343 16.928 40.6663 17 40.4743 17C40.2663 17 40.0903 16.928 39.9463 16.784C39.8183 16.64 39.7543 16.472 39.7543 16.28V5.24C39.7543 5.048 39.8183 4.88 39.9463 4.736C40.0903 4.592 40.2663 4.52 40.4743 4.52C40.6823 4.52 40.8503 4.592 40.9783 4.736C41.1223 4.88 41.1943 5.048 41.1943 5.24V16.28ZM40.4743 2.912C40.1383 2.912 39.8823 2.84 39.7063 2.696C39.5463 2.536 39.4663 2.312 39.4663 2.024V1.784C39.4663 1.496 39.5543 1.28 39.7303 1.136C39.9223 0.976 40.1783 0.896 40.4983 0.896C40.8023 0.896 41.0343 0.976 41.1943 1.136C41.3703 1.28 41.4583 1.496 41.4583 1.784V2.024C41.4583 2.312 41.3703 2.536 41.1943 2.696C41.0343 2.84 40.7943 2.912 40.4743 2.912ZM44.1431 4.784H49.7351C49.9271 4.784 50.0871 4.856 50.2151 5C50.3431 5.128 50.4071 5.288 50.4071 5.48C50.4071 5.656 50.3431 5.808 50.2151 5.936C50.0871 6.064 49.9271 6.128 49.7351 6.128H44.1431C43.9511 6.128 43.7831 6.064 43.6391 5.936C43.5111 5.792 43.4471 5.632 43.4471 5.456C43.4471 5.264 43.5111 5.104 43.6391 4.976C43.7831 4.848 43.9511 4.784 44.1431 4.784ZM46.6151 1.4C46.8231 1.4 46.9911 1.472 47.1191 1.616C47.2631 1.76 47.3351 1.928 47.3351 2.12V14.168C47.3351 14.616 47.3911 14.952 47.5031 15.176C47.6311 15.4 47.7911 15.552 47.9831 15.632C48.1751 15.696 48.3671 15.728 48.5591 15.728C48.6871 15.728 48.7991 15.712 48.8951 15.68C49.0071 15.632 49.1271 15.608 49.2551 15.608C49.3991 15.608 49.5191 15.664 49.6151 15.776C49.7271 15.888 49.7831 16.032 49.7831 16.208C49.7831 16.432 49.6551 16.624 49.3991 16.784C49.1431 16.928 48.8391 17 48.4871 17C48.3431 17 48.1271 16.992 47.8391 16.976C47.5511 16.944 47.2551 16.856 46.9511 16.712C46.6471 16.552 46.3911 16.28 46.1831 15.896C45.9911 15.512 45.8951 14.96 45.8951 14.24V2.12C45.8951 1.928 45.9591 1.76 46.0871 1.616C46.2311 1.472 46.4071 1.4 46.6151 1.4ZM52.8406 15.056C52.7126 14.864 52.6486 14.68 52.6486 14.504C52.6646 14.312 52.7686 14.16 52.9606 14.048C53.0886 13.936 53.2326 13.888 53.3926 13.904C53.5686 13.92 53.7286 14 53.8726 14.144C54.3046 14.704 54.8246 15.16 55.4326 15.512C56.0566 15.848 56.7926 16.016 57.6406 16.016C58.0886 16.016 58.5286 15.944 58.9606 15.8C59.4086 15.64 59.7766 15.408 60.0646 15.104C60.3526 14.784 60.4966 14.384 60.4966 13.904C60.4966 13.408 60.3526 13.008 60.0646 12.704C59.7766 12.4 59.4006 12.16 58.9366 11.984C58.4886 11.808 58.0086 11.656 57.4966 11.528C56.9526 11.384 56.4246 11.224 55.9126 11.048C55.4006 10.856 54.9446 10.624 54.5446 10.352C54.1606 10.064 53.8486 9.72 53.6086 9.32C53.3686 8.92 53.2486 8.432 53.2486 7.856C53.2486 7.184 53.4326 6.592 53.8006 6.08C54.1686 5.568 54.6646 5.168 55.2886 4.88C55.9286 4.592 56.6486 4.448 57.4486 4.448C57.8486 4.448 58.2806 4.504 58.7446 4.616C59.2086 4.712 59.6646 4.88 60.1126 5.12C60.5606 5.36 60.9606 5.688 61.3126 6.104C61.4566 6.248 61.5286 6.416 61.5286 6.608C61.5286 6.784 61.4486 6.944 61.2886 7.088C61.1606 7.184 61.0086 7.232 60.8326 7.232C60.6726 7.232 60.5366 7.168 60.4246 7.04C60.0406 6.608 59.5846 6.28 59.0566 6.056C58.5286 5.832 57.9606 5.72 57.3526 5.72C56.8886 5.72 56.4486 5.8 56.0326 5.96C55.6326 6.104 55.2966 6.328 55.0246 6.632C54.7526 6.936 54.6166 7.336 54.6166 7.832C54.6486 8.296 54.8086 8.672 55.0966 8.96C55.4006 9.248 55.7926 9.488 56.2726 9.68C56.7686 9.872 57.3206 10.048 57.9286 10.208C58.4406 10.336 58.9286 10.488 59.3926 10.664C59.8726 10.84 60.2886 11.064 60.6406 11.336C61.0086 11.592 61.2966 11.92 61.5046 12.32C61.7286 12.72 61.8406 13.224 61.8406 13.832C61.8406 14.536 61.6406 15.144 61.2406 15.656C60.8566 16.168 60.3366 16.56 59.6806 16.832C59.0246 17.104 58.2966 17.24 57.4966 17.24C56.6326 17.24 55.7926 17.072 54.9766 16.736C54.1766 16.4 53.4646 15.84 52.8406 15.056Z" fill="#EFEEE0"/>
</svg>
