<svg width="14" height="14" viewBox="0 0 14 14" fill="none" xmlns="http://www.w3.org/2000/svg">
<path d="M9.79334 0.333313H4.20668C4.02001 0.333313 3.84001 0.33998 3.66668 0.366646C1.56668 0.55998 0.333344 1.96665 0.333344 4.20665V9.79331C0.333344 12.0333 1.56668 13.44 3.66668 13.6333C3.84001 13.66 4.02001 13.6666 4.20668 13.6666H8.00001C8.26001 13.6666 8.42668 13.3733 8.32668 13.1333C8.13334 12.6733 8.00001 12.14 8.00001 11.6666C8.00001 9.64665 9.64668 7.99998 11.6667 7.99998C12.1733 7.99998 12.6667 8.09998 13.12 8.29998C13.3667 8.40665 13.6667 8.23998 13.6667 7.97331V4.20665C13.6667 1.77998 12.22 0.333313 9.79334 0.333313ZM8.65334 4.36665V7.53998C8.65334 7.54665 8.64668 7.55331 8.64668 7.56665C8.63334 8.37998 7.97334 9.03998 7.15334 9.03998C6.32668 9.03998 5.66001 8.36665 5.66001 7.54665C5.66001 6.71998 6.33334 6.05331 7.15334 6.05331C7.32668 6.05331 7.49334 6.08665 7.65334 6.14665V5.01998L5.00668 5.73998V8.20665C5.00668 8.21331 5.00001 8.21998 5.00001 8.22665C4.98668 9.03998 4.32668 9.69331 3.50668 9.69331C2.68001 9.69331 2.01334 9.01998 2.01334 8.19998C2.01334 7.37998 2.68668 6.70665 3.50668 6.70665C3.68001 6.70665 3.84668 6.73998 4.00001 6.79998V5.35998V4.19331C4.00001 3.57331 4.38668 3.07331 4.98001 2.91331L6.96668 2.36665C7.58668 2.19998 7.96668 2.36665 8.18001 2.52665C8.48668 2.75998 8.64001 3.13998 8.64001 3.64665V4.36665H8.65334Z" fill="#FACD66"/>
</svg>
